<svg xmlns="http://www.w3.org/2000/svg" viewBox="0 0 1024 1024" width="1024" height="1024">
  <defs>
    <linearGradient id="bg" x1="128" y1="96" x2="896" y2="928" gradientUnits="userSpaceOnUse">
      <stop offset="0" stop-color="#17252b"/>
      <stop offset="0.52" stop-color="#1f6f72"/>
      <stop offset="1" stop-color="#30b7a7"/>
    </linearGradient>
    <linearGradient id="card" x1="220" y1="184" x2="804" y2="820" gradientUnits="userSpaceOnUse">
      <stop offset="0" stop-color="#ffffff"/>
      <stop offset="1" stop-color="#e7f4f2"/>
    </linearGradient>
    <linearGradient id="check" x1="420" y1="612" x2="726" y2="790" gradientUnits="userSpaceOnUse">
      <stop offset="0" stop-color="#ffb253"/>
      <stop offset="1" stop-color="#f36f45"/>
    </linearGradient>
    <filter id="shadow" x="-20%" y="-20%" width="140%" height="150%">
      <feDropShadow dx="0" dy="28" stdDeviation="34" flood-color="#071114" flood-opacity="0.34"/>
    </filter>
    <filter id="soft" x="-20%" y="-20%" width="140%" height="140%">
      <feDropShadow dx="0" dy="12" stdDeviation="12" flood-color="#071114" flood-opacity="0.18"/>
    </filter>
    <clipPath id="card-clip">
      <rect x="214" y="178" width="596" height="660" rx="86"/>
    </clipPath>
  </defs>

  <rect x="36" y="36" width="952" height="952" rx="216" fill="url(#bg)"/>
  <path d="M178 762C250 845 368 894 514 894c159 0 279-61 351-164 31 52 54 113 63 182H102c11-57 37-109 76-150Z" fill="#0f262b" opacity="0.18"/>
  <circle cx="824" cy="188" r="120" fill="#ffffff" opacity="0.1"/>
  <circle cx="164" cy="804" r="174" fill="#ffffff" opacity="0.08"/>

  <g filter="url(#shadow)">
    <rect x="214" y="178" width="596" height="660" rx="86" fill="url(#card)"/>
    <g clip-path="url(#card-clip)">
      <rect x="214" y="178" width="596" height="148" fill="#24323a"/>
      <rect x="214" y="310" width="596" height="24" fill="#30b7a7"/>
      <circle cx="354" cy="252" r="31" fill="#eff9f7"/>
      <circle cx="512" cy="252" r="31" fill="#eff9f7"/>
      <circle cx="670" cy="252" r="31" fill="#eff9f7"/>
      <rect x="312" y="138" width="48" height="126" rx="24" fill="#79d9cf"/>
      <rect x="470" y="138" width="48" height="126" rx="24" fill="#79d9cf"/>
      <rect x="628" y="138" width="48" height="126" rx="24" fill="#79d9cf"/>

      <g opacity="0.88">
        <rect x="294" y="408" width="92" height="72" rx="22" fill="#cfe5e2"/>
        <rect x="430" y="408" width="92" height="72" rx="22" fill="#cfe5e2"/>
        <rect x="566" y="408" width="92" height="72" rx="22" fill="#cfe5e2"/>
        <rect x="294" y="524" width="92" height="72" rx="22" fill="#cfe5e2"/>
        <rect x="430" y="524" width="92" height="72" rx="22" fill="#2fb6a7"/>
        <rect x="566" y="524" width="92" height="72" rx="22" fill="#cfe5e2"/>
        <rect x="294" y="640" width="92" height="72" rx="22" fill="#cfe5e2"/>
        <rect x="430" y="640" width="92" height="72" rx="22" fill="#cfe5e2"/>
        <rect x="566" y="640" width="92" height="72" rx="22" fill="#cfe5e2"/>
      </g>
    </g>
  </g>

  <g filter="url(#soft)">
    <circle cx="682" cy="686" r="156" fill="#18343a" opacity="0.18"/>
    <circle cx="682" cy="672" r="146" fill="url(#check)"/>
    <path d="M610 666l48 48 100-112" fill="none" stroke="#fffaf1" stroke-width="54" stroke-linecap="round" stroke-linejoin="round"/>
  </g>

  <g filter="url(#soft)">
    <circle cx="326" cy="676" r="70" fill="#ffffff"/>
    <path d="M326 637v43l34 22" fill="none" stroke="#1e6f73" stroke-width="24" stroke-linecap="round" stroke-linejoin="round"/>
    <circle cx="326" cy="676" r="8" fill="#1e6f73"/>
  </g>
</svg>
